<svg enable-background="new 0 0 512 512" viewBox="0 0 512 512" xmlns="http://www.w3.org/2000/svg"
    xmlns:xlink="http://www.w3.org/1999/xlink">
    <linearGradient id="a" gradientUnits="userSpaceOnUse" x1="12.9405" x2="465.7405" y1="427.8738"
        y2="-24.9261">
        <stop offset=".5" stop-color="#273c74" />
        <stop offset="1" stop-color="#487eb0" />
    </linearGradient>
    <path
        d="m85.3 490.7c0 12.8 8.5 21.3 21.3 21.3h85.4c12.8 0 21.3-8.5 21.3-21.3v-21.3zm128-34.2-128 21.3v-21.3l128-21.3zm106.7-264.5h-64v-64h64zm-85.3-85.3h-64v-64h64zm85.3 0h-42.7v-42.7h42.7zm85.3 21.3h-42.7v-42.7h42.7zm-21.3-64h-42.7v-42.7h42.7zm106.7-42.7h-21.3v-21.3h21.3zm-42.7 42.7h-21.3v-21.3h21.3zm-168.7 155.6v85.3c-10.8 19.3-25.6 36.4-44.9 46.9v49.2c0 12.8-8.5 21.3-21.3 21.3h-8.5l-128 19.1v-21.3c-6.3-4.3-12.8-10.8-12.8-19.1v-48.9c-38.2-27.8-63.8-72.8-63.8-121.7 0-68.3 44.9-125.7 106.7-142.8v46.9h85.3v85.3h87.3z"
        fill="url(#a)" />
</svg>