<svg height="40" viewBox="0 0 120 40" width="120" xmlns="http://www.w3.org/2000/svg" xmlns:xlink="http://www.w3.org/1999/xlink"><linearGradient id="a" gradientTransform="matrix(1 0 0 -1 0 42)" gradientUnits="userSpaceOnUse" x1="1.01098" x2="36.38598" y1="8.57236" y2="43.94736"><stop offset=".5" stop-color="#273c74"/><stop offset="1" stop-color="#487eb0"/></linearGradient><path d="m26.03849 36.87012v-13.41088q0-.92637 1.73751-.92664h.8114q1.738 0 1.73752.92664v13.41088q0 .92717-1.73752.92716h-.8114q-1.73725 0-1.73751-.92716zm.02881-16.68372v-2.25924q0-.92716 2.14348-.92716t2.14347.92716v2.25924q0 .92717-2.14347.92664-2.14426-.00004-2.14348-.92664zm7.24131 16.68372v-9.23969a20.28428 20.28428 0 0 0 -.1451-2.92554 9.59352 9.59352 0 0 1 -.14458-1.07174q0-.52173 1.21632-.7674a10.88615 10.88615 0 0 1 2.11466-.24672.75053.75053 0 0 1 .72392.319 2.46074 2.46074 0 0 1 .2462.82554q.07228.5068.13043.79621a5.45159 5.45159 0 0 1 1.60761-1.57827 3.96076 3.96076 0 0 1 2.18695-.62283 2.91922 2.91922 0 0 1 2.41849 1.02832 4.69967 4.69967 0 0 1 .82554 2.99783v10.48529q0 .92717-1.6799.92716h-.98478q-1.68068 0-1.6799-.92716v-9.50055a2.11229 2.11229 0 0 0 -.23205-1.11522.92014.92014 0 0 0 -.83968-.362 1.837 1.837 0 0 0 -1.44837.92664v10.05113a.75117.75117 0 0 1 -.40544.69511 2.58618 2.58618 0 0 1 -1.24564.23205h-1.0136q-1.6516 0-1.65108-.92716zm13.96088 0v-9.23969a20.28468 20.28468 0 0 0 -.14509-2.92554 9.59352 9.59352 0 0 1 -.14458-1.07174q0-.52173 1.21631-.7674a10.88624 10.88624 0 0 1 2.11467-.24675.75053.75053 0 0 1 .72392.319 2.46074 2.46074 0 0 1 .2462.82554q.07229.5068.13043.79621a5.45159 5.45159 0 0 1 1.60765-1.57823 3.96076 3.96076 0 0 1 2.187-.62283 2.91922 2.91922 0 0 1 2.4184 1.02831 4.69967 4.69967 0 0 1 .82554 2.99783v10.48529q0 .92717-1.6799.92716h-.98478q-1.68069 0-1.6799-.92716v-9.50055a2.11229 2.11229 0 0 0 -.23205-1.11522.92014.92014 0 0 0 -.83969-.362 1.837 1.837 0 0 0 -1.44836.92664v10.05113a.75117.75117 0 0 1 -.40544.69511 2.58622 2.58622 0 0 1 -1.24565.23205h-1.01359q-1.65158 0-1.65109-.92716zm23.83805-12.51306a5.89709 5.89709 0 0 0 -8.84887 0 9.57329 9.57329 0 0 0 -1.49189 5.793 9.57016 9.57016 0 0 0 1.506 5.80756 5.85317 5.85317 0 0 0 8.83477 0 9.57345 9.57345 0 0 0 1.506-5.80756 9.5092 9.5092 0 0 0 -1.50601-5.793zm-3.20054 9.22552a1.26575 1.26575 0 0 1 -1.20215.99945 1.2791 1.2791 0 0 1 -1.231-.99945 11.24224 11.24224 0 0 1 -.36246-3.43258 11.08591 11.08591 0 0 1 .36249-3.41742 1.27621 1.27621 0 0 1 1.231-.98535 1.26249 1.26249 0 0 1 1.20215.98535 11.12282 11.12282 0 0 1 .36197 3.41742 11.27979 11.27979 0 0 1 -.362 3.43258z" fill="#273c74"/><path d="m77.14617 37.65218a.63313.63313 0 0 1 -.4201-.5212l-2.25977-13.7875q-.11472-.81088 1.65109-.81088h1.1304q1.419 0 1.44784.60816l.40544 6.48805q.20273 2.83885.20325 4.17119h.11524q.40543-2.05626.92716-4.17119l1.62175-6.48805q.14457-.60816 1.6228-.60816h1.15764q1.419 0 1.41956.637a1.28333 1.28333 0 0 1 -.11524.5212l-4.925 13.49783q-.231.60894-1.59242.60868h-1.39019a2.76955 2.76955 0 0 1 -.99945-.14513zm21.10163-3.244a1.01124 1.01124 0 0 0 -.31848.10108.98024.98024 0 0 1 -.34784.10162c-.2514 0-.3761-.14453-.3761-.4342v-.17395l1.12934-10.74616q.05823-.72372-1.70868-.72394h-.34784a3.15907 3.15907 0 0 0 -1.04236.12989.99242.99242 0 0 0 -.50708.37664 3.42051 3.42051 0 0 0 -.33313.82557 6.02849 6.02849 0 0 0 -1.21631-1.08588 3.01132 3.01132 0 0 0 -1.68042-.42011 3.90043 3.90043 0 0 0 -3.056 1.40485 8.75154 8.75154 0 0 0 -1.81036 3.59131 17.73058 17.73058 0 0 0 -.57935 4.5625 9.62918 9.62918 0 0 0 .86957 4.37341 2.93107 2.93107 0 0 0 2.80875 1.70919 3.61872 3.61872 0 0 0 3.33149-2.23047 2.33605 2.33605 0 0 0 2.51959 2.20111 4.20005 4.20005 0 0 0 1.65112-.31848 1.50221 1.50221 0 0 0 .92713-.83966 11.46091 11.46091 0 0 0 .28916-1.5065l.05866-.49237q.00001-.40552-.26086-.40549zm-4.75-6.08264-.46411 4.60546a2.8644 2.8644 0 0 1 -.593 1.12933 1.19581 1.19581 0 0 1 -.91253.43482q-1.188 0-1.188-2.63587a15.836 15.836 0 0 1 .52173-4.22882q.52011-1.88259 1.76629-1.88318a1.56619 1.56619 0 0 1 1.18805.57935q-.1163.52173-.31843 1.99887zm7.28319 8.93591a3.0371 3.0371 0 0 1 -.73859-2.27391 7.07986 7.07986 0 0 1 .02934-.72444l1.10107-10.80382q.08643-.92637 1.825-.92664h.81088q1.76633 0 1.65109.95545l-1.1587 10.48586v.20272q0 .4345.46306.43424a1.02941 1.02941 0 0 0 .40544-.10162 1.01052 1.01052 0 0 1 .31848-.10109q.26086 0 .26086.40543l-.05762.4924c-.0199.11576-.05343.33838-.10162.6663a4.95157 4.95157 0 0 1 -.18857.84021 1.50272 1.50272 0 0 1 -.94079.83968 4.46456 4.46456 0 0 1 -1.72337.31848 2.70587 2.70587 0 0 1 -1.95595-.70929zm.79726-17.075.23153-2.25924q.08643-.92721 2.25976-.92721 2.11362 0 2.02719.92716l-.23153 2.25924q-.088.92717-2.23043.92664-2.14347-.00004-2.05652-.92664zm18.42175 14.62714-.05762.4924c-.01991.11576-.05343.33838-.10162.6663a5.0622 5.0622 0 0 1 -.18753.84021 1.50219 1.50219 0 0 1 -.92716.83968 4.20375 4.20375 0 0 1 -1.65109.31848 2.72156 2.72156 0 0 1 -1.96957-.72392 3.227 3.227 0 0 1 -.75325-2.40434q0-.231.05762-.86849l.6663-6.60434.02933-.40544a1.2469 1.2469 0 0 0 -.21791-.81088.91319.91319 0 0 0 -.73859-.26086 2.062 2.062 0 0 0 -1.53479.92664l-1.07174 10.05109a.806.806 0 0 1 -.46306.69511 2.7721 2.7721 0 0 1 -1.275.23205h-1.01307q-1.6516 0-1.56413-.92716l.98478-9.23969q.14458-1.53533.14458-2.63587c0-.34782-.01048-.62754-.02934-.84021a2.37961 2.37961 0 0 1 0-.5212q.05815-.52173 1.30327-.7674a11.326 11.326 0 0 1 2.14348-.24672.84666.84666 0 0 1 .62335.21739 1.52773 1.52773 0 0 1 .21686.99945q0 .49265-.02934.84021a6.88479 6.88479 0 0 1 1.81033-1.65109 4.23844 4.23844 0 0 1 2.30272-.6663 2.7534 2.7534 0 0 1 2.14348.79621 3.40363 3.40363 0 0 1 .725 2.36086q0 .23257-.05867.869l-.81088 7.61794v.17391q0 .4345.37715.43424a.97053.97053 0 0 0 .34677-.10162 1.01853 1.01853 0 0 1 .31849-.10109q.26085.00002.26085.40545z" fill="#487eb0"/><path d="m6.66667 38.33333a1.57462 1.57462 0 0 0 1.66666 1.66667h6.66667a1.57463 1.57463 0 0 0 1.66667-1.66667v-1.66666zm10-2.66666-10 1.66666v-1.66666l10-1.66667zm8.33333-20.66667h-5v-5h5zm-6.66667-6.66667h-5v-5h5zm6.66667 0h-3.33333v-3.33333h3.33333zm6.66667 1.66667h-3.33334v-3.33333h3.33334zm-1.66667-5h-3.33333v-3.33333h3.33333zm8.33333-3.33333h-1.66666v-1.66667h1.66666zm-3.33333 3.33333h-1.66667v-1.66667h1.66667zm-13.17778 12.15555v6.66667a9.14716 9.14716 0 0 1 -3.51111 3.66667v3.84444a1.57463 1.57463 0 0 1 -1.66667 1.66667h-.66666l-10 1.48889v-1.66667a1.95948 1.95948 0 0 1 -1-1.48889v-3.82222a11.93265 11.93265 0 0 1 -4.97778-9.51111 11.49979 11.49979 0 0 1 8.33333-11.15556v3.66667h6.66667v6.66667h6.82222z" fill="url(#a)"/></svg>