<svg enable-background="new 0 0 32 32" viewBox="0 0 32 32" xmlns="http://www.w3.org/2000/svg"><path d="m22.7 7.7v-1h.6c.3 0 .6-.3.6-.6v-1.7c0-.3-.3-.6-.6-.6h-3.7c-.3 0-.6.3-.6.6v1.7c0 .3.3.6.6.6h.6v1c-1.9.2-3.7 1-5.2 2.1l-.6-.6.1-.1c.2-.2.2-.6 0-.8l-.8-.8c-.2-.2-.6-.2-.8 0l-1.9 1.9c-.2.2-.2.6 0 .8l.8.8c.2.2.6.2.8 0l.1-.1.6.6c-1.4 1.7-2.2 3.9-2.2 6.3 0 5.7 4.6 10.3 10.3 10.3s10.3-4.6 10.3-10.3c0-2.4-.8-4.6-2.2-6.3l.6-.6.1.1c.2.2.6.2.8 0l.8-.8c.2-.2.2-.6 0-.8l-1.8-1.9c-.2-.2-.6-.2-.8 0l-.8.8c-.2.2-.2.6 0 .8l.1.1-.6.6c-1.5-1.1-3.3-1.9-5.2-2.1zm6.7 10.2c0 4.3-3.5 7.9-7.9 7.9s-7.9-3.5-7.9-7.9 3.5-7.9 7.9-7.9 7.9 3.5 7.9 7.9zm-26.2 3.8c0-.6.5-1 1-1h5.2c.2.7.4 1.3.6 2-.1 0-.2.1-.3.1h-5.5c-.6-.1-1-.6-1-1.1zm6.2-6.5h-8.4c-.6 0-1-.5-1-1 0-.6.5-1 1-1h8.7.3c-.3.6-.5 1.3-.6 2zm-8 2.7c0-.6.5-1 1-1h6.7v1 1h-6.6c-.6 0-1.1-.4-1.1-1zm25-2.9c-.2-.3-.5-.4-.8-.2l-3.6 1.7c-.4-.2-.9-.2-1.4.1-.7.4-1 1.4-.5 2.1.4.7 1.4 1 2.1.5.4-.3.7-.7.8-1.2l3.2-2.3c.3-.1.4-.5.2-.7zm-4.3 3.1c-.1.4-.5.6-.8.5s-.6-.5-.5-.8c.1-.4.5-.6.8-.5.4 0 .6.4.5.8zm1.4-4.4c-.1-.2-.1-.4 0-.6.2-.3.6-.4.9-.2s.4.6.2.9c-.2.2-.6.3-.9.2-.1-.1-.2-.2-.2-.3zm-2.6-.6c-.1-.1-.1-.2-.1-.3 0-.4.3-.6.6-.6s.6.3.6.6c0 .4-.3.6-.6.6-.2 0-.4-.1-.5-.3zm1.3 9.9c0 .4-.3.6-.6.6-.2 0-.4-.1-.6-.3-.1-.1-.1-.2-.1-.3 0-.4.3-.6.6-.6.4 0 .7.3.7.6zm2.4-1c.2.3.1.7-.2.9s-.7.1-.9-.2-.1-.7.2-.9c.4-.2.8-.1.9.2zm1.9-1.3c-.1.3-.5.5-.8.3-.1-.1-.2-.1-.2-.2-.1-.2-.1-.4 0-.6.2-.3.6-.4.9-.2.2 0 .3.4.1.7zm-10.2-2.1c-.2 0-.4-.1-.6-.3-.1-.1-.1-.2-.1-.3 0-.4.3-.6.6-.6.4 0 .6.3.6.6.1.3-.1.6-.5.6zm1.3 1.6c.2.3.1.7-.2.9s-.7.1-.9-.2-.1-.7.2-.9.7-.1.9.2zm9-3c.4 0 .6.3.6.6 0 .4-.3.6-.6.6-.2 0-.4-.1-.6-.3 0 0 0-.1 0-.3 0-.3.3-.6.6-.6zm-10.2-1.5c-.1-.2-.1-.4 0-.6.2-.3.6-.4.9-.2s.4.6.2.9-.6.4-.9.2c-.1-.1-.1-.2-.2-.3zm1.9-1.9c-.2-.3-.1-.7.2-.9s.7-.1.9.2.1.7-.2.9c-.4.2-.7.1-.9-.2zm1.2 8.9c-.2.3-.6.4-.9.2-.1-.1-.2-.1-.2-.2-.1-.2-.1-.4 0-.6.2-.3.6-.4.9-.2.2.1.4.5.2.8z"/></svg>