<svg enable-background="new 0 0 32 32" viewBox="0 0 32 32" xmlns="http://www.w3.org/2000/svg" xmlns:xlink="http://www.w3.org/1999/xlink"><image height="520" overflow="visible" transform="matrix(.5 0 0 .5 -728.0572 -244)" width="572" xlink:href="../../../../Desktop/Captura de pantalla 2023-11-22 a las 11.11.43.png"/><path d="m31.4 15-1.9-1.3c-.8-.5-1.1-1.6-.7-2.5l1-2.1c.4-.8 0-1.6-1-1.7l-2.3-.2c-.9-.1-1.7-.9-1.8-1.8l-.2-2.3c-.1-.9-.8-1.3-1.7-1l-2.1 1c-.8.4-1.9.1-2.5-.7l-1.2-1.8c-.5-.8-1.4-.8-1.9 0l-1.3 1.9c-.5.8-1.6 1.1-2.5.7l-2.1-1c-.8-.4-1.6 0-1.7 1l-.2 2.2c-.1 1-.9 1.8-1.9 1.9l-2.3.2c-.9.1-1.3.8-1 1.7l1 2.1c.4.8.1 1.9-.7 2.5l-1.8 1.2c-.8.5-.8 1.4 0 1.9l1.9 1.3c.8.5 1.1 1.6.7 2.5l-1 2.1c-.4.8 0 1.6 1 1.7l2.3.2c.9.1 1.7.9 1.8 1.8l.2 2.3c.1.9.8 1.3 1.7 1l2.1-1c.8-.4 1.9-.1 2.5.7l1.3 1.9c.5.8 1.4.8 1.9 0l1.3-1.9c.5-.8 1.6-1.1 2.5-.7l2.1 1c.8.4 1.6 0 1.7-1l.2-2.3c.1-.9.9-1.7 1.8-1.8l2.3-.2c.9-.1 1.3-.8 1-1.7l-1-2.1c-.4-.8-.1-1.9.7-2.5l1.9-1.3c.7-.5.7-1.3-.1-1.9zm-15.4 10.6c-5.3 0-9.6-4.3-9.6-9.6s4.3-9.6 9.6-9.6 9.6 4.3 9.6 9.6-4.3 9.6-9.6 9.6z"/><path d="m21.3 11.2c-.8-.5-1.8-.4-2.3.4l-3.7 5.3-2.4-2.5c-.6-.7-1.7-.7-2.4 0-.7.6-.7 1.7 0 2.4l3.8 4c.3.3.8.5 1.2.5h.1c.5 0 1-.3 1.2-.7l4.9-6.9c.6-1 .4-2-.4-2.5z"/></svg>