<svg enable-background="new 0 0 32 32" viewBox="0 0 32 32" xmlns="http://www.w3.org/2000/svg">
    <path
        d="m14.5 4v6c-.1 0-.2 0-.3 0-3.2 0-6.5 0-9.7 0-.4 0-.4-.1-.5-.5-.1-.7.2-1.2.5-1.8.7-1 1.3-1.9 2-2.9.3-.6.7-.8 1.4-.8h6.4zm3.3 6h9.6.2c.2-.1.4-.2.4-.3.1-.6.1-1.2-.3-1.7-.8-1.1-1.4-2.1-2.1-3.2-.4-.5-.8-.8-1.5-.8-2.1 0-4.1 0-6.2 0-.1 0-.2 0-.3 0v6zm10.2 14.8c0 1.6-1 2.8-2.5 3.1-.2 0-.5.1-.7.1-5.8 0-11.8 0-17.6 0-1.7 0-2.9-1.1-3.1-2.5 0-.2 0-.5 0-.6 0-3.8 0-7.5 0-11.3-.1-.5 0-.6.5-.6h11.4 11.4c.5 0 .6.1.6.6zm-6-3.6c0-.5 0-.9 0-1.4 0-.6-.3-.9-.9-.9-1.6 0-3.1 0-4.6 0-.5 0-.5-.1-.5-.5 0-.7 0-1.3 0-2 0-.1 0-.4-.1-.4s-.3.1-.4.2c-1.3.8-2.5 1.8-3.6 2.7-.6.5-1.3 1-1.9 1.5.1.1.1.1.1.1 1.7 1.4 3.5 2.9 5.2 4.3.1.1.3.1.4.1.1-.1.1-.2.1-.4 0-.7 0-1.3 0-2 0-.5.1-.5.5-.5h4.7c.7.1 1-.2 1-.8z" />
</svg>