<svg enable-background="new 0 0 32 32" viewBox="0 0 32 32" xmlns="http://www.w3.org/2000/svg"><path d="m21.6 26.5c0 .1-.1.2-.2.2h-14.1c-.1 0-.2-.1-.2-.2v-21c0-.1.1-.2.2-.2h14.1c.1 0 .2.1.2.2v2.3h2.9v-4c0-2.1-1.7-3.8-3.8-3.9h-12.8c-2.1.1-3.8 1.9-3.8 4v24.3c0 2.1 1.6 3.8 3.7 3.9h12.8c2.1 0 3.8-1.8 3.7-3.9v-4h-2.9v2.3zm-6.2 3.8h-2.1c-.5 0-.9-.4-.9-.9s.4-.9.9-.9h2.1c.5 0 .9.4.9.9s-.4.9-.9.9zm10.5-20.1h-10.3c-1.1 0-1.9.9-1.9 1.9v7.8c0 1.1.9 1.9 1.9 1.9h1.9v2.2c0 .2.2.4.4.4.1 0 .2 0 .3-.1l2.5-2.5h5.3c1.1 0 1.9-.9 1.9-1.9v-7.8c0-1.1-.9-1.9-2-1.9zm-5 8.7h-3.4c-.4 0-.6-.3-.6-.6s.3-.6.6-.6h3.4c.4 0 .6.3.6.6.1.3-.2.6-.6.6zm3-2.3h-6.3c-.4 0-.6-.3-.6-.6 0-.4.3-.6.6-.6h6.3c.4 0 .6.3.6.6.1.4-.2.6-.6.6zm0-2.2h-6.3c-.4 0-.6-.3-.6-.6s.3-.6.6-.6h6.3c.4 0 .6.3.6.6.1.3-.2.6-.6.6z"/></svg>